<?xml version="1.0" standalone="no"?>
<!DOCTYPE svg PUBLIC "-//W3C//DTD SVG 20010904//EN"
 "http://www.w3.org/TR/2001/REC-SVG-20010904/DTD/svg10.dtd">
<svg version="1.0" xmlns="http://www.w3.org/2000/svg"
 width="500.000000pt" height="500.000000pt" viewBox="0 0 500.000000 500.000000"
 preserveAspectRatio="xMidYMid meet">

<g transform="translate(0.000000,500.000000) scale(0.100000,-0.100000)"
fill="#000000" stroke="none">
<path d="M2325 4914 c-90 -21 -96 -24 -420 -202 -471 -259 -548 -303 -574
-326 -43 -38 -101 -138 -128 -220 -25 -78 -26 -92 -34 -411 -12 -535 -11 -803
5 -861 36 -137 120 -232 304 -342 67 -41 122 -76 122 -78 0 -5 -296 -496 -430
-714 -103 -167 -123 -219 -124 -325 -1 -135 -3 -129 332 -734 253 -455 290
-511 379 -570 98 -65 138 -71 558 -82 209 -6 475 -9 590 -7 209 3 210 3 270
32 36 18 87 56 126 95 58 57 104 128 351 542 321 537 323 541 316 701 -3 82
-8 103 -39 168 -31 65 -440 814 -489 895 l-19 30 104 59 c157 89 235 175 276
306 18 59 21 108 30 500 6 239 9 503 7 585 -3 150 -3 150 -38 215 -71 131
-123 171 -575 442 -469 281 -473 283 -557 303 -79 19 -263 18 -343 -1z m247
-124 c43 -12 931 -542 965 -576 33 -33 30 -76 -6 -107 -16 -14 -126 -78 -243
-142 -117 -65 -321 -178 -454 -252 -170 -94 -257 -136 -296 -144 -106 -21
-120 -15 -624 287 -252 151 -467 284 -477 296 -24 28 -22 72 6 98 31 30 931
526 976 538 49 13 109 14 153 2z m-666 -951 c247 -149 466 -287 488 -307 21
-20 49 -59 62 -87 23 -48 24 -58 24 -295 0 -135 -3 -323 -7 -418 l-6 -173
-256 2 c-218 2 -262 -1 -295 -15 -21 -9 -45 -16 -53 -16 -28 0 -407 234 -454
281 -85 83 -84 73 -72 697 11 541 13 572 47 594 37 25 77 5 522 -263z m1719
255 c8 -4 23 -20 32 -37 13 -27 15 -61 9 -251 -3 -122 -8 -360 -12 -531 -6
-364 -11 -389 -82 -464 -36 -39 -92 -76 -247 -161 l-200 -111 -145 7 c-80 4
-146 8 -148 9 -1 1 2 14 8 29 5 15 10 49 10 76 0 41 -4 52 -26 69 -33 26 -45
26 -93 1 -46 -23 -87 -70 -113 -127 l-19 -43 -55 0 -54 0 5 103 c2 56 7 243
10 416 5 277 8 319 26 365 35 94 68 117 538 378 523 289 517 287 556 272z
m-1016 -1554 c492 -10 493 -10 507 -66 5 -17 0 -41 -13 -68 -43 -86 -536 -893
-566 -924 -18 -18 -56 -44 -87 -59 l-55 -26 -290 3 c-159 1 -409 5 -555 9
-235 5 -269 8 -294 25 -55 36 -45 59 245 540 145 241 279 456 298 477 34 41
93 77 146 90 42 10 147 10 664 -1z m645 -102 c13 -13 132 -219 264 -458 292
-532 271 -489 282 -552 19 -97 5 -127 -286 -610 -146 -244 -277 -455 -292
-470 -33 -35 -80 -38 -109 -6 -25 29 -516 921 -531 967 -16 46 -15 130 2 177
19 55 542 924 573 952 13 12 35 22 48 22 13 0 35 -10 49 -22z m-1044 -1067
c305 -11 314 -16 456 -271 122 -218 399 -720 418 -758 23 -46 17 -90 -16 -115
-26 -19 -34 -20 -568 -8 -425 10 -552 16 -592 27 -92 28 -118 64 -396 567
-139 251 -255 470 -258 486 -7 34 9 69 39 81 22 10 513 5 917 -9z"/>
<path d="M2405 4665 c-121 -44 -108 -143 23 -181 99 -29 216 4 243 68 10 25 9
33 -8 56 -44 60 -173 89 -258 57z"/>
<path d="M1727 4286 c-137 -37 -127 -148 17 -187 78 -21 213 12 230 56 23 62
-8 104 -97 130 -60 18 -86 18 -150 1z"/>
<path d="M3080 4254 c-51 -22 -80 -53 -80 -86 0 -101 232 -140 328 -55 30 27
29 77 -1 105 -52 49 -176 67 -247 36z"/>
<path d="M2398 3879 c-55 -16 -88 -51 -88 -93 0 -43 31 -70 108 -92 126 -37
265 30 236 114 -21 59 -160 98 -256 71z"/>
<path d="M1804 3309 c-14 -16 -19 -35 -18 -79 2 -99 81 -210 161 -226 74 -15
108 86 62 186 -49 110 -157 172 -205 119z"/>
<path d="M3424 3894 c-49 -33 -70 -58 -95 -113 -39 -88 -25 -168 33 -187 32
-10 104 33 141 84 109 150 52 304 -79 216z"/>
<path d="M2745 3522 c-112 -69 -173 -247 -102 -297 29 -20 50 -19 97 5 74 38
136 150 127 229 -8 74 -60 101 -122 63z"/>
<path d="M3100 3324 c-78 -34 -138 -118 -147 -208 -4 -42 -1 -56 17 -78 39
-50 109 -33 174 44 54 63 79 159 55 211 -9 19 -49 49 -62 47 -1 -1 -18 -8 -37
-16z"/>
<path d="M3420 3113 c-78 -52 -119 -115 -127 -198 -6 -60 7 -92 44 -106 37
-14 82 4 125 49 66 68 98 157 78 217 -18 55 -71 72 -120 38z"/>
<path d="M2167 2080 c-125 -48 -193 -154 -137 -210 26 -26 109 -27 166 -1 55
25 114 79 131 120 19 45 3 86 -39 100 -42 15 -65 13 -121 -9z"/>
<path d="M3152 2227 c-77 -82 -65 -284 20 -325 83 -39 156 121 118 259 -22 80
-93 114 -138 66z"/>
<path d="M3152 1555 c-67 -48 -90 -199 -42 -285 47 -84 113 -79 155 12 39 83
31 192 -17 250 -29 35 -66 44 -96 23z"/>
<path d="M3137 869 c-35 -21 -61 -90 -62 -164 -1 -210 154 -248 195 -48 28
134 -51 260 -133 212z"/>
<path d="M1452 1264 c-16 -11 -22 -25 -22 -52 0 -45 25 -85 80 -128 102 -81
240 -76 240 8 0 115 -208 235 -298 172z"/>
<path d="M2650 567 c-66 -22 -66 -85 -1 -159 77 -87 219 -117 264 -56 19 26
20 28 3 72 -37 97 -177 172 -266 143z"/>
</g>
</svg>
