<?xml version="1.0" standalone="no"?>
<!DOCTYPE svg PUBLIC "-//W3C//DTD SVG 20010904//EN"
 "http://www.w3.org/TR/2001/REC-SVG-20010904/DTD/svg10.dtd">
<svg version="1.0" xmlns="http://www.w3.org/2000/svg"
 width="512.000000pt" height="512.000000pt" viewBox="0 0 512.000000 512.000000"
 preserveAspectRatio="xMidYMid meet">

<g transform="translate(0.000000,512.000000) scale(0.100000,-0.100000)"
fill="#000000" stroke="none">
<path d="M2472 3607 c-85 -27 -117 -100 -66 -151 27 -27 107 -56 154 -56 47 0
127 29 154 56 92 93 -83 202 -242 151z"/>
<path d="M1161 3004 c-57 -40 -78 -161 -42 -241 25 -54 60 -77 106 -69 83 16
121 156 69 259 -32 64 -85 84 -133 51z"/>
<path d="M2087 2371 c-37 -44 -52 -119 -37 -182 18 -72 51 -109 101 -109 65 0
109 65 109 161 0 128 -107 208 -173 130z"/>
<path d="M2896 2370 c-59 -71 -59 -189 0 -260 53 -63 137 -28 164 68 19 71 6
141 -36 192 -36 43 -92 43 -128 0z"/>
<path d="M1161 2044 c-78 -55 -78 -243 0 -298 71 -49 152 30 153 149 1 122
-79 200 -153 149z"/>
<path d="M3824 2042 c-76 -61 -81 -207 -9 -279 41 -41 65 -42 108 -3 57 49 73
148 38 226 -32 70 -91 94 -137 56z"/>
<path d="M2087 1491 c-37 -44 -52 -119 -37 -182 17 -71 52 -109 99 -109 82 0
136 124 100 231 -30 88 -112 119 -162 60z"/>
</g>
</svg>
